<svg xmlns="http://www.w3.org/2000/svg" viewBox="0 0 273.63 72.19"><defs><style>.cls-1{fill:#fff;}.cls-2{fill:#8d439d;}</style></defs><title>bookland-f</title><g id="Camada_2" data-name="Camada 2"><g id="Camada_1-2" data-name="Camada 1"><path class="cls-1" d="M25.36,10.24a11,11,0,0,1,4.9,3.13A7,7,0,0,1,32,18.07a7.43,7.43,0,0,1-1.62,4.7A8.34,8.34,0,0,1,26,25.65a8.67,8.67,0,0,1,5.1,3.16A9.1,9.1,0,0,1,33,34.59a8.32,8.32,0,0,1-1.77,5.25,11.07,11.07,0,0,1-5,3.49,21.18,21.18,0,0,1-7.5,1.21H0V9.13H17.93A22.57,22.57,0,0,1,25.36,10.24ZM19.22,22.06A2.48,2.48,0,0,0,20,20.19a2.34,2.34,0,0,0-.73-1.79,2.74,2.74,0,0,0-1.95-.68H11.67v5.05h5.61A2.68,2.68,0,0,0,19.22,22.06Zm.66,13.11a2.49,2.49,0,0,0,1-2,2.19,2.19,0,0,0-1-1.87,4.37,4.37,0,0,0-2.6-.71H11.67V36h5.61A4.06,4.06,0,0,0,19.88,35.17Z"/><path class="cls-1" d="M58.65,18.25a12.76,12.76,0,0,1,5.46,5A14.33,14.33,0,0,1,66,30.7a14.33,14.33,0,0,1-1.92,7.5,12.93,12.93,0,0,1-5.46,5,18.18,18.18,0,0,1-8.24,1.77,18.18,18.18,0,0,1-8.24-1.77,12.93,12.93,0,0,1-5.46-5,14.31,14.31,0,0,1-1.92-7.5,14.32,14.32,0,0,1,1.92-7.5,12.76,12.76,0,0,1,5.46-5,18.42,18.42,0,0,1,8.24-1.74A18.42,18.42,0,0,1,58.65,18.25ZM47.41,27a6.18,6.18,0,0,0-1.14,3.89,6.18,6.18,0,0,0,1.14,3.89,3.82,3.82,0,0,0,6,0,6.18,6.18,0,0,0,1.14-3.89A6.18,6.18,0,0,0,53.43,27a3.82,3.82,0,0,0-6,0Z"/><path class="cls-1" d="M91.39,18.25a12.76,12.76,0,0,1,5.46,5,14.33,14.33,0,0,1,1.92,7.5,14.33,14.33,0,0,1-1.92,7.5,12.93,12.93,0,0,1-5.46,5,20.07,20.07,0,0,1-16.47,0,12.93,12.93,0,0,1-5.46-5,14.31,14.31,0,0,1-1.92-7.5,14.32,14.32,0,0,1,1.92-7.5,12.76,12.76,0,0,1,5.46-5,20.33,20.33,0,0,1,16.47,0ZM80.15,27A6.18,6.18,0,0,0,79,30.85a6.18,6.18,0,0,0,1.14,3.89,3.82,3.82,0,0,0,6,0,6.18,6.18,0,0,0,1.14-3.89A6.18,6.18,0,0,0,86.16,27a3.82,3.82,0,0,0-6,0Z"/><path class="cls-1" d="M133.17,16.91,123.12,27.57l9.9,17H119.53l-4.24-8.69-1.36,1.42v7.27H102.56V7.06h11.37v17l6.42-7.17Z"/><path class="cls-2" d="M136,7.06h11.37V44.54H136Z"/><path class="cls-2" d="M176,19.11a9.15,9.15,0,0,1,3.36,7.55V44.54H168.18v-3Q165.66,45,160.4,45a9.42,9.42,0,0,1-6.79-2.35,8.37,8.37,0,0,1-2.45-6.34,7.39,7.39,0,0,1,2.73-6.21q2.73-2.12,8-2.22h6.31A2.73,2.73,0,0,0,167,25.67a5.36,5.36,0,0,0-3.16-.78,19.87,19.87,0,0,0-3.86.45,29.13,29.13,0,0,0-4.52,1.31L153,19.08a44.57,44.57,0,0,1,7-2,34.63,34.63,0,0,1,6.59-.68Q172.63,16.4,176,19.11Zm-9.5,18.16a4.58,4.58,0,0,0,1.69-1.57V33.17h-3.94q-2.42,0-2.42,2.22a2.37,2.37,0,0,0,.66,1.79,2.58,2.58,0,0,0,1.87.63A4.5,4.5,0,0,0,166.49,37.27Z"/><path class="cls-2" d="M209,17.72a9.17,9.17,0,0,1,3.51,3.69,11.56,11.56,0,0,1,1.26,5.51V44.54H202.44V30.19a4,4,0,0,0-.91-2.75,3,3,0,0,0-2.38-1,3.24,3.24,0,0,0-2.65,1.21,5,5,0,0,0-1,3.23V44.54H184.15V16.91h11.37v3.94a9.55,9.55,0,0,1,3.56-3.31,10.15,10.15,0,0,1,4.82-1.14A10,10,0,0,1,209,17.72Z"/><path class="cls-2" d="M247.65,7.06V44.54H236.28V41.76a8.83,8.83,0,0,1-7,3.18,12.48,12.48,0,0,1-6.67-1.77,11.66,11.66,0,0,1-4.45-5,17.36,17.36,0,0,1-1.57-7.6,17.09,17.09,0,0,1,1.52-7.43,11.27,11.27,0,0,1,4.32-4.9A12.28,12.28,0,0,1,229,16.5a9.94,9.94,0,0,1,4.09.83,9.25,9.25,0,0,1,3.23,2.4V7.06ZM235.17,34.74a6.29,6.29,0,0,0,1.11-3.89A6.29,6.29,0,0,0,235.17,27a3.55,3.55,0,0,0-3-1.47,3.62,3.62,0,0,0-3,1.47A6.18,6.18,0,0,0,228,30.85a6.18,6.18,0,0,0,1.14,3.89,3.62,3.62,0,0,0,3,1.47A3.55,3.55,0,0,0,235.17,34.74Z"/><path class="cls-1" d="M268.7,1.34A10,10,0,0,1,273.63,10a9.86,9.86,0,0,1-1.33,5,10,10,0,0,1-3.62,3.68,10,10,0,0,1-10.09,0A10,10,0,0,1,253.68,10a9.88,9.88,0,0,1,1.33-5,10.08,10.08,0,0,1,3.61-3.68,10,10,0,0,1,10.08,0Zm-8.59,2.56a6.94,6.94,0,0,0-2.55,2.59,7.07,7.07,0,0,0-.93,3.55,6.92,6.92,0,0,0,.93,3.52,7.07,7.07,0,0,0,2.52,2.56,6.72,6.72,0,0,0,3.54,1,7,7,0,0,0,6.14-3.55,7.08,7.08,0,0,0,.93-3.55,6.92,6.92,0,0,0-.93-3.52,7,7,0,0,0-2.53-2.56,6.81,6.81,0,0,0-3.55-1A6.89,6.89,0,0,0,260.11,3.91ZM265,8.18a2.19,2.19,0,0,0-1.11-.34,1.8,1.8,0,0,0-1.4.6A2.18,2.18,0,0,0,262,10a2.22,2.22,0,0,0,.54,1.55,1.8,1.8,0,0,0,1.4.6,2.28,2.28,0,0,0,1.06-.3,4.22,4.22,0,0,0,1-.77l1.77,1.89a5.6,5.6,0,0,1-1.86,1.36,5.25,5.25,0,0,1-4.71-.12,4.53,4.53,0,0,1-1.75-1.71,4.78,4.78,0,0,1-.63-2.45,4.55,4.55,0,0,1,2.45-4.13,5.38,5.38,0,0,1,2.59-.62A5.63,5.63,0,0,1,267.8,7L266,9.11A3.18,3.18,0,0,0,265,8.18Z"/><path class="cls-1" d="M3.12,66.43a.81.81,0,0,0,0,.12q0,.2.3.32a4.91,4.91,0,0,0,1,.19v.68h-4v-.68a5.1,5.1,0,0,0,1-.25.62.62,0,0,0,.38-.38L5,56.55a4.08,4.08,0,0,1,.93-.6A7,7,0,0,1,7,55.53l3.82,10.9a.74.74,0,0,0,.33.42,2.13,2.13,0,0,0,.8.21v.68H7.42v-.68a3.06,3.06,0,0,0,.87-.14q.27-.11.27-.32a.59.59,0,0,0,0-.17L7.6,63.75H4Zm2.6-8.1L4.35,62.64H7.22Z"/><path class="cls-1" d="M19,67.69a14.65,14.65,0,0,1-2-.84V56a3.06,3.06,0,0,0-.07-.82.42.42,0,0,0-.26-.29,4.84,4.84,0,0,0-.77-.14v-.65q1-.17,1.63-.32a8.41,8.41,0,0,0,1.26-.42l.4.38v6.55a6.38,6.38,0,0,1,1.67-1.1,3.69,3.69,0,0,1,1.42-.36,2.43,2.43,0,0,1,1.55.51,3.26,3.26,0,0,1,1,1.46A6.34,6.34,0,0,1,25.27,63a4.33,4.33,0,0,1-.71,2.24,6.49,6.49,0,0,1-1.83,2,3.87,3.87,0,0,1-2.24.78A5,5,0,0,1,19,67.69Zm1.35-7a5.26,5.26,0,0,0-1.12.78v4.26a7.26,7.26,0,0,0,1.24.56,3.06,3.06,0,0,0,.87.19,1.58,1.58,0,0,0,1.4-.72,3.28,3.28,0,0,0,.48-1.85,6.13,6.13,0,0,0-.26-2,2.39,2.39,0,0,0-.72-1.13,1.62,1.62,0,0,0-1-.36A2,2,0,0,0,20.38,60.68Z"/><path class="cls-1" d="M26.52,67.06a3.85,3.85,0,0,0,.89-.27q.31-.15.31-.29V61.34a2.62,2.62,0,0,0-.07-.71.51.51,0,0,0-.31-.32,3.08,3.08,0,0,0-.82-.16v-.65a13.23,13.23,0,0,0,2.8-.67h.58V66.5q0,.13.3.29a3.22,3.22,0,0,0,.91.27v.68H26.52Zm1.31-9.87a.9.9,0,0,1-.35-.76,1.33,1.33,0,0,1,.75-1.22A1.69,1.69,0,0,1,29,55a1.49,1.49,0,0,1,.9.26.88.88,0,0,1,.36.76,1.31,1.31,0,0,1-.43,1,1.56,1.56,0,0,1-1.1.39A1.45,1.45,0,0,1,27.83,57.2Z"/><path class="cls-1" d="M34.63,67.69a14.65,14.65,0,0,1-2-.84V56a3.06,3.06,0,0,0-.07-.82.42.42,0,0,0-.26-.29,4.84,4.84,0,0,0-.77-.14v-.65q1-.17,1.63-.32a8.41,8.41,0,0,0,1.26-.42l.4.38v6.55a6.38,6.38,0,0,1,1.67-1.1,3.69,3.69,0,0,1,1.42-.36,2.43,2.43,0,0,1,1.55.51,3.26,3.26,0,0,1,1,1.46A6.34,6.34,0,0,1,40.86,63a4.33,4.33,0,0,1-.71,2.24,6.49,6.49,0,0,1-1.83,2,3.87,3.87,0,0,1-2.24.78A5,5,0,0,1,34.63,67.69Zm1.35-7a5.26,5.26,0,0,0-1.12.78v4.26a7.26,7.26,0,0,0,1.24.56,3.06,3.06,0,0,0,.87.19,1.58,1.58,0,0,0,1.4-.72,3.28,3.28,0,0,0,.48-1.85,6.13,6.13,0,0,0-.26-2,2.39,2.39,0,0,0-.72-1.13,1.62,1.62,0,0,0-1-.36A2,2,0,0,0,36,60.68Z"/><path class="cls-1" d="M42,67.06a4.38,4.38,0,0,0,1-.26c.18-.09.28-.19.28-.3V56a2.55,2.55,0,0,0-.09-.8.47.47,0,0,0-.3-.3,5.2,5.2,0,0,0-.81-.14v-.65q1-.15,1.65-.31a8.85,8.85,0,0,0,1.34-.44l.39.38V66.5q0,.16.3.3a4.23,4.23,0,0,0,1,.26v.68H42Z"/><path class="cls-1" d="M47.71,67.06a3.85,3.85,0,0,0,.89-.27q.31-.15.31-.29V61.34a2.62,2.62,0,0,0-.07-.71.51.51,0,0,0-.31-.32,3.08,3.08,0,0,0-.82-.16v-.65a13.23,13.23,0,0,0,2.8-.67h.58V66.5q0,.13.3.29a3.22,3.22,0,0,0,.91.27v.68H47.71ZM49,57.2a.9.9,0,0,1-.35-.76,1.33,1.33,0,0,1,.75-1.22,1.69,1.69,0,0,1,.77-.18,1.49,1.49,0,0,1,.9.26.88.88,0,0,1,.36.76,1.31,1.31,0,0,1-.43,1,1.56,1.56,0,0,1-1.1.39A1.45,1.45,0,0,1,49,57.2Z"/><path class="cls-1" d="M55.28,67.45a3.87,3.87,0,0,1-1.45-1.57,4.85,4.85,0,0,1-.51-2.26,4.93,4.93,0,0,1,.58-2.34,4.71,4.71,0,0,1,1.61-1.78,4.1,4.1,0,0,1,2.29-.67,4,4,0,0,1,2.15.57A3.88,3.88,0,0,1,61.39,61a4.88,4.88,0,0,1,.51,2.26,4.7,4.7,0,0,1-.61,2.32,5,5,0,0,1-1.65,1.78,4,4,0,0,1-2.2.68A4.08,4.08,0,0,1,55.28,67.45ZM56,60.89a5.74,5.74,0,0,0-.43,2.47,5.23,5.23,0,0,0,.29,1.76,3.3,3.3,0,0,0,.76,1.27,1.46,1.46,0,0,0,1,.47,1.55,1.55,0,0,0,1.48-.8,5.15,5.15,0,0,0,.44-2.4,6,6,0,0,0-.26-1.82,3.4,3.4,0,0,0-.74-1.34,1.45,1.45,0,0,0-1.08-.5A1.52,1.52,0,0,0,56,60.89Z"/><path class="cls-1" d="M64.85,67.74a1.9,1.9,0,0,1-.69-.85,3.43,3.43,0,0,1-.25-1.4v-5.2h-1.1l-.26-.33.71-.83h.65V57.18l1.84-1.38.35.31v3h2.77l.33.33a4.41,4.41,0,0,1-.45.66,2.76,2.76,0,0,1-.47.49,2.81,2.81,0,0,0-.69-.23,4.1,4.1,0,0,0-.89-.1h-.61v4.34q0,1.71.77,1.71a2.43,2.43,0,0,0,.78-.15,7.71,7.71,0,0,0,1.15-.55l.4.68a14.67,14.67,0,0,1-2,1.29,3.28,3.28,0,0,1-1.34.43A1.75,1.75,0,0,1,64.85,67.74Z"/><path class="cls-1" d="M72.24,63.4a4.62,4.62,0,0,0,.3,1.59,2.5,2.5,0,0,0,.78,1.08,1.9,1.9,0,0,0,1.2.39,3.12,3.12,0,0,0,1.61-.4,9.8,9.8,0,0,0,1.15-.72.9.9,0,0,1,.25.25q.15.2.23.34a11.28,11.28,0,0,1-1.46,1.31,4,4,0,0,1-1.2.61,4.84,4.84,0,0,1-1.34.17,3.45,3.45,0,0,1-1.89-.55,3.88,3.88,0,0,1-1.37-1.55A4.94,4.94,0,0,1,70,63.64a5.18,5.18,0,0,1,.47-2.25A4.58,4.58,0,0,1,73,59.09a3.88,3.88,0,0,1,1.34-.25,3.36,3.36,0,0,1,1.92.52,3.15,3.15,0,0,1,1.15,1.38,4.69,4.69,0,0,1,.38,1.9,2.2,2.2,0,0,1-.55.4,6.56,6.56,0,0,1-.73.36Zm3.05-1a.4.4,0,0,0,.27-.07.37.37,0,0,0,.07-.26,3,3,0,0,0-.15-.91A2,2,0,0,0,75,60.3,1.29,1.29,0,0,0,74,60a1.41,1.41,0,0,0-1.24.62,3.82,3.82,0,0,0-.53,1.79Z"/><path class="cls-1" d="M80.9,67.49A3.84,3.84,0,0,1,79.52,66,5,5,0,0,1,79,63.62a4.78,4.78,0,0,1,.63-2.42,4.57,4.57,0,0,1,1.75-1.73,5.05,5.05,0,0,1,2.53-.64,5.7,5.7,0,0,1,1.45.21,2.38,2.38,0,0,1,1.09.52,2.11,2.11,0,0,1-.1.67q-.13.52-.32,1.05a3.79,3.79,0,0,1-.3.7l-.61-.09a3.91,3.91,0,0,0-.76-1.43A1.49,1.49,0,0,0,83.22,60a1.66,1.66,0,0,0-1,.35,2.37,2.37,0,0,0-.74,1.11,5.59,5.59,0,0,0-.28,1.9A4,4,0,0,0,81.49,65a2.52,2.52,0,0,0,.86,1.08,2.08,2.08,0,0,0,1.2.37,3.23,3.23,0,0,0,.7-.07,2.91,2.91,0,0,0,.74-.3,8.61,8.61,0,0,0,1-.7l.49.59a8.08,8.08,0,0,1-1.39,1.32,3.69,3.69,0,0,1-1.17.58,4.8,4.8,0,0,1-1.2.14A3.49,3.49,0,0,1,80.9,67.49Z"/><path class="cls-1" d="M92.84,67.63a2.46,2.46,0,0,1-.28-1.08A5,5,0,0,1,91,67.67a3.66,3.66,0,0,1-1.46.35,2.14,2.14,0,0,1-1-.25,2,2,0,0,1-.77-.73,2.17,2.17,0,0,1-.3-1.17,2.45,2.45,0,0,1,.2-1,2.92,2.92,0,0,1,.58-.83,3.62,3.62,0,0,1,.78-.6,6,6,0,0,1,1.28-.5,18,18,0,0,1,2.23-.46V61.37a1.6,1.6,0,0,0-.26-1,1.05,1.05,0,0,0-.9-.35,1.28,1.28,0,0,0-.55.13,1.13,1.13,0,0,0-.45.38,1,1,0,0,0-.17.57v.11q0,.11-.5.3a9.78,9.78,0,0,1-1.11.33,2.25,2.25,0,0,1-.75.11l-.19-.5a3.42,3.42,0,0,1,1-1.33,5.49,5.49,0,0,1,1.68-1,5.69,5.69,0,0,1,2-.35,2.45,2.45,0,0,1,1.81.61,2.19,2.19,0,0,1,.61,1.61v4.47q0,.72.36.72a1.05,1.05,0,0,0,.3-.05l.52-.2.2.7a11.06,11.06,0,0,1-1.57.93A3.22,3.22,0,0,1,93.4,68,.67.67,0,0,1,92.84,67.63Zm-.29-4.25a9.57,9.57,0,0,0-1.51.35,1.92,1.92,0,0,0-.73.43,2.06,2.06,0,0,0-.4.54,1.47,1.47,0,0,0-.13.64,1.06,1.06,0,0,0,.27.81.84.84,0,0,0,.58.25,2,2,0,0,0,.83-.21,4.93,4.93,0,0,0,1.09-.76Z"/><path class="cls-1" d="M105.18,67.78a7.44,7.44,0,0,1-1.36-.81v4q0,.33,1.54.57v.68h-4.92v-.68a5.27,5.27,0,0,0,.91-.28q.29-.13.29-.29V61.35a3,3,0,0,0-.06-.74.49.49,0,0,0-.31-.32,2.72,2.72,0,0,0-.83-.13v-.65q1-.14,1.59-.27a10.79,10.79,0,0,0,1.27-.39l.38.39.08,1.14a4.86,4.86,0,0,1,3-1.53,2.7,2.7,0,0,1,1.55.47,3.18,3.18,0,0,1,1.1,1.43,6,6,0,0,1,.41,2.36,5.19,5.19,0,0,1-.56,2.31,5.93,5.93,0,0,1-1.4,1.87,2.47,2.47,0,0,1-1.58.73A2.82,2.82,0,0,1,105.18,67.78Zm0-7.29a2.35,2.35,0,0,0-.54.3q-.32.22-.85.67v4.17a7.72,7.72,0,0,0,1.39.69,3,3,0,0,0,1,.15,1.22,1.22,0,0,0,.82-.31,2,2,0,0,0,.56-.9,4.47,4.47,0,0,0,.2-1.42,5.25,5.25,0,0,0-.3-1.91,2.6,2.6,0,0,0-.78-1.14,1.65,1.65,0,0,0-1-.37A1.41,1.41,0,0,0,105.21,60.49Z"/><path class="cls-1" d="M117.59,67.69a2.58,2.58,0,0,1-.35-1.21,7.38,7.38,0,0,1-1.74,1.23,3.37,3.37,0,0,1-1.37.31,2.25,2.25,0,0,1-1.65-.64,3.06,3.06,0,0,1-.65-2.22v-3.8a5.4,5.4,0,0,0,0-.89.4.4,0,0,0-.25-.3,3.29,3.29,0,0,0-.81-.14v-.65q1-.09,1.62-.2a9.28,9.28,0,0,0,1.34-.34l.32.43v5.3a4.28,4.28,0,0,0,.12,1.14.94.94,0,0,0,.35.55,1.06,1.06,0,0,0,.59.15,2.3,2.3,0,0,0,1-.25,5.36,5.36,0,0,0,1.22-.86v-4a3.66,3.66,0,0,0-.07-.85.5.5,0,0,0-.31-.35A2.79,2.79,0,0,0,116,60v-.65a20.34,20.34,0,0,0,3-.54l.34.43v5.84a5.17,5.17,0,0,0,0,.79.48.48,0,0,0,.17.32.3.3,0,0,0,.16,0,2.48,2.48,0,0,0,.8-.26l.23.7a15.08,15.08,0,0,1-1.53.89,3.66,3.66,0,0,1-1.07.43A.76.76,0,0,1,117.59,67.69Zm-2.89-9.75a2,2,0,0,1-.38-.24l1.92-4,1,.16q.83.14,1,.19l.27.5-3.47,3.52A1.58,1.58,0,0,1,114.7,57.94Z"/><path class="cls-1" d="M124,67.69a14.65,14.65,0,0,1-2-.84V56a3.06,3.06,0,0,0-.07-.82.42.42,0,0,0-.26-.29,4.84,4.84,0,0,0-.77-.14v-.65q1-.17,1.63-.32a8.41,8.41,0,0,0,1.26-.42l.4.38v6.55a6.38,6.38,0,0,1,1.67-1.1,3.69,3.69,0,0,1,1.42-.36,2.43,2.43,0,0,1,1.55.51,3.26,3.26,0,0,1,1,1.46,6.34,6.34,0,0,1,.35,2.22,4.33,4.33,0,0,1-.71,2.24,6.49,6.49,0,0,1-1.83,2,3.87,3.87,0,0,1-2.24.78A5,5,0,0,1,124,67.69Zm1.35-7a5.26,5.26,0,0,0-1.12.78v4.26a7.26,7.26,0,0,0,1.24.56,3.06,3.06,0,0,0,.87.19,1.58,1.58,0,0,0,1.4-.72,3.28,3.28,0,0,0,.48-1.85,6.13,6.13,0,0,0-.26-2,2.39,2.39,0,0,0-.72-1.13,1.62,1.62,0,0,0-1-.36A2,2,0,0,0,125.34,60.68Z"/><path class="cls-1" d="M131.38,67.06a4.38,4.38,0,0,0,1-.26c.18-.09.28-.19.28-.3V56a2.55,2.55,0,0,0-.09-.8.47.47,0,0,0-.3-.3,5.2,5.2,0,0,0-.81-.14v-.65q1-.15,1.65-.31a8.85,8.85,0,0,0,1.34-.44l.39.38V66.5q0,.16.3.3a4.23,4.23,0,0,0,1,.26v.68h-4.77Z"/><path class="cls-1" d="M137.07,67.06a3.85,3.85,0,0,0,.89-.27q.31-.15.31-.29V61.34a2.62,2.62,0,0,0-.07-.71.51.51,0,0,0-.31-.32,3.08,3.08,0,0,0-.82-.16v-.65a13.23,13.23,0,0,0,2.8-.67h.58V66.5q0,.13.3.29a3.21,3.21,0,0,0,.91.27v.68h-4.59Zm1.31-9.87a.9.9,0,0,1-.35-.76,1.33,1.33,0,0,1,.75-1.22,1.69,1.69,0,0,1,.77-.18,1.49,1.49,0,0,1,.9.26.88.88,0,0,1,.36.76,1.31,1.31,0,0,1-.43,1,1.56,1.56,0,0,1-1.1.39A1.45,1.45,0,0,1,138.37,57.2Z"/><path class="cls-1" d="M144.58,67.49A3.84,3.84,0,0,1,143.2,66a5,5,0,0,1-.52-2.33,4.78,4.78,0,0,1,.63-2.42,4.58,4.58,0,0,1,1.75-1.73,5.05,5.05,0,0,1,2.53-.64,5.7,5.7,0,0,1,1.45.21,2.38,2.38,0,0,1,1.09.52,2.12,2.12,0,0,1-.1.67q-.13.52-.32,1.05a3.78,3.78,0,0,1-.3.7l-.61-.09a3.9,3.9,0,0,0-.76-1.43A1.49,1.49,0,0,0,146.9,60a1.66,1.66,0,0,0-1,.35,2.37,2.37,0,0,0-.74,1.11,5.59,5.59,0,0,0-.28,1.9,4,4,0,0,0,.32,1.65,2.52,2.52,0,0,0,.86,1.08,2.08,2.08,0,0,0,1.2.37,3.23,3.23,0,0,0,.7-.07,2.91,2.91,0,0,0,.74-.3,8.63,8.63,0,0,0,1-.7l.49.59a8.07,8.07,0,0,1-1.39,1.32,3.69,3.69,0,0,1-1.17.58,4.8,4.8,0,0,1-1.2.14A3.48,3.48,0,0,1,144.58,67.49Z"/><path class="cls-1" d="M156.52,67.63a2.47,2.47,0,0,1-.28-1.08,5,5,0,0,1-1.55,1.13,3.66,3.66,0,0,1-1.46.35,2.14,2.14,0,0,1-1-.25,2,2,0,0,1-.77-.73,2.17,2.17,0,0,1-.3-1.17,2.44,2.44,0,0,1,.2-1,2.91,2.91,0,0,1,.58-.83,3.6,3.6,0,0,1,.78-.6,6,6,0,0,1,1.28-.5,18,18,0,0,1,2.23-.46V61.37a1.6,1.6,0,0,0-.26-1,1.05,1.05,0,0,0-.9-.35,1.28,1.28,0,0,0-.55.13,1.13,1.13,0,0,0-.45.38,1,1,0,0,0-.17.57v.11q0,.11-.5.3a9.78,9.78,0,0,1-1.11.33,2.25,2.25,0,0,1-.75.11l-.19-.5a3.43,3.43,0,0,1,1-1.33,5.49,5.49,0,0,1,1.68-1,5.7,5.7,0,0,1,2-.35,2.45,2.45,0,0,1,1.81.61,2.19,2.19,0,0,1,.61,1.61v4.47q0,.72.36.72a1.05,1.05,0,0,0,.3-.05l.52-.2.2.7a11.06,11.06,0,0,1-1.57.93,3.22,3.22,0,0,1-1.15.39A.67.67,0,0,1,156.52,67.63Zm-.29-4.25a9.57,9.57,0,0,0-1.51.35,1.92,1.92,0,0,0-.73.43,2.07,2.07,0,0,0-.4.54,1.47,1.47,0,0,0-.13.64,1.06,1.06,0,0,0,.27.81.84.84,0,0,0,.58.25,2,2,0,0,0,.83-.21,4.93,4.93,0,0,0,1.09-.76Z"/><path class="cls-1" d="M168.08,67.06a3.86,3.86,0,0,0,.89-.27q.31-.15.31-.29V61.34a2.59,2.59,0,0,0-.07-.71.51.51,0,0,0-.31-.32,3.08,3.08,0,0,0-.82-.16v-.65a13.23,13.23,0,0,0,2.8-.67h.58V66.5q0,.13.3.29a3.23,3.23,0,0,0,.91.27v.68h-4.59Zm1.31-9.87a.89.89,0,0,1-.35-.76,1.33,1.33,0,0,1,.75-1.22,1.69,1.69,0,0,1,.77-.18,1.49,1.49,0,0,1,.9.26.88.88,0,0,1,.36.76,1.31,1.31,0,0,1-.43,1,1.56,1.56,0,0,1-1.1.39A1.45,1.45,0,0,1,169.39,57.2Z"/><path class="cls-1" d="M179.13,67.06a5.46,5.46,0,0,0,.92-.3q.28-.13.28-.26V62.29a4.83,4.83,0,0,0-.09-1.07.93.93,0,0,0-.3-.54.91.91,0,0,0-.57-.16,2.42,2.42,0,0,0-1,.28,6.91,6.91,0,0,0-1.4,1V66.5q0,.14.32.29a4.06,4.06,0,0,0,.89.27v.68h-4.59v-.68a6.36,6.36,0,0,0,.92-.29q.28-.13.28-.27V61.35a3.63,3.63,0,0,0,0-.75.42.42,0,0,0-.28-.28,4.21,4.21,0,0,0-.87-.16v-.65a12.54,12.54,0,0,0,1.53-.25,10,10,0,0,0,1.33-.42l.38.39.1,1.34a8.11,8.11,0,0,1,1.94-1.3,4.12,4.12,0,0,1,1.68-.42,1.94,1.94,0,0,1,1.44.58,2.46,2.46,0,0,1,.57,1.79V66.5q0,.13.26.26a5.39,5.39,0,0,0,1,.31v.68h-4.59Z"/><path class="cls-1" d="M186.27,67.74a1.9,1.9,0,0,1-.69-.85,3.44,3.44,0,0,1-.25-1.4v-5.2h-1.1l-.26-.33.71-.83h.65V57.18l1.84-1.38.35.31v3h2.77l.33.33a4.36,4.36,0,0,1-.45.66,2.77,2.77,0,0,1-.47.49,2.81,2.81,0,0,0-.69-.23,4.1,4.1,0,0,0-.89-.1h-.61v4.34q0,1.71.77,1.71a2.43,2.43,0,0,0,.78-.15,7.74,7.74,0,0,0,1.15-.55l.4.68a14.63,14.63,0,0,1-2,1.29,3.28,3.28,0,0,1-1.34.43A1.75,1.75,0,0,1,186.27,67.74Z"/><path class="cls-1" d="M193.66,63.4A4.63,4.63,0,0,0,194,65a2.51,2.51,0,0,0,.78,1.08,1.9,1.9,0,0,0,1.2.39,3.12,3.12,0,0,0,1.61-.4,9.86,9.86,0,0,0,1.16-.72.91.91,0,0,1,.25.25q.14.2.23.34a11.26,11.26,0,0,1-1.46,1.31,4,4,0,0,1-1.2.61,4.84,4.84,0,0,1-1.34.17,3.44,3.44,0,0,1-1.89-.55,3.87,3.87,0,0,1-1.37-1.55,4.93,4.93,0,0,1-.51-2.27,5.18,5.18,0,0,1,.47-2.25,4.58,4.58,0,0,1,2.57-2.31,3.88,3.88,0,0,1,1.34-.25,3.37,3.37,0,0,1,1.92.52,3.15,3.15,0,0,1,1.15,1.38,4.69,4.69,0,0,1,.38,1.9,2.19,2.19,0,0,1-.55.4,6.5,6.5,0,0,1-.73.36Zm3.06-1a.4.4,0,0,0,.27-.07.36.36,0,0,0,.07-.26,3,3,0,0,0-.15-.91,1.94,1.94,0,0,0-.51-.82,1.29,1.29,0,0,0-.93-.34,1.41,1.41,0,0,0-1.24.62,3.82,3.82,0,0,0-.53,1.79Z"/><path class="cls-1" d="M206.52,62.37a3.51,3.51,0,0,0-.32-1.31.77.77,0,0,0-.69-.51q-1,0-1.87,1.89V66.5q0,.15.4.3a6.45,6.45,0,0,0,1.21.27v.68h-5v-.68a4.76,4.76,0,0,0,.9-.28q.3-.14.3-.29V61.59a4.41,4.41,0,0,0-.05-.82.74.74,0,0,0-.16-.36.65.65,0,0,0-.31-.18,4.23,4.23,0,0,0-.68-.07v-.65q1-.16,1.55-.28a12.77,12.77,0,0,0,1.31-.38l.38.39.12,1.34a4.6,4.6,0,0,1,1.25-1.25,2.63,2.63,0,0,1,1.47-.49,2.67,2.67,0,0,1,.72.11,3.11,3.11,0,0,1,.71.3s.05.11.05.24a7.36,7.36,0,0,1-.23,1.46,8.85,8.85,0,0,1-.42,1.43Z"/><path class="cls-1" d="M214,67.63a2.47,2.47,0,0,1-.28-1.08,5,5,0,0,1-1.55,1.13,3.66,3.66,0,0,1-1.46.35,2.14,2.14,0,0,1-1-.25A2,2,0,0,1,209,67a2.17,2.17,0,0,1-.3-1.17,2.44,2.44,0,0,1,.2-1,2.91,2.91,0,0,1,.58-.83,3.6,3.6,0,0,1,.78-.6,6,6,0,0,1,1.28-.5,18,18,0,0,1,2.23-.46V61.37a1.6,1.6,0,0,0-.26-1,1.05,1.05,0,0,0-.9-.35,1.28,1.28,0,0,0-.55.13,1.13,1.13,0,0,0-.45.38,1,1,0,0,0-.17.57v.11q0,.11-.5.3a9.78,9.78,0,0,1-1.11.33,2.25,2.25,0,0,1-.75.11l-.19-.5a3.43,3.43,0,0,1,1-1.33,5.49,5.49,0,0,1,1.68-1,5.7,5.7,0,0,1,2-.35,2.45,2.45,0,0,1,1.81.61,2.19,2.19,0,0,1,.61,1.61v4.47q0,.72.36.72a1.05,1.05,0,0,0,.3-.05l.52-.2.2.7a11.06,11.06,0,0,1-1.57.93,3.22,3.22,0,0,1-1.15.39A.67.67,0,0,1,214,67.63Zm-.29-4.25a9.57,9.57,0,0,0-1.51.35,1.92,1.92,0,0,0-.73.43,2.07,2.07,0,0,0-.4.54,1.47,1.47,0,0,0-.13.64,1.06,1.06,0,0,0,.27.81.84.84,0,0,0,.58.25,2,2,0,0,0,.83-.21,4.93,4.93,0,0,0,1.09-.76Z"/><path class="cls-1" d="M219.74,67.74a1.9,1.9,0,0,1-.69-.85,3.44,3.44,0,0,1-.25-1.4v-5.2h-1.1l-.26-.33.71-.83h.65V57.18l1.84-1.38.35.31v3h2.77l.33.33a4.36,4.36,0,0,1-.45.66,2.77,2.77,0,0,1-.47.49,2.81,2.81,0,0,0-.69-.23,4.1,4.1,0,0,0-.89-.1H221v4.34q0,1.71.77,1.71a2.43,2.43,0,0,0,.78-.15,7.74,7.74,0,0,0,1.15-.55l.4.68a14.63,14.63,0,0,1-2,1.29,3.28,3.28,0,0,1-1.34.43A1.75,1.75,0,0,1,219.74,67.74Z"/><path class="cls-1" d="M224.85,67.06a3.86,3.86,0,0,0,.89-.27q.31-.15.31-.29V61.34a2.59,2.59,0,0,0-.07-.71.51.51,0,0,0-.31-.32,3.08,3.08,0,0,0-.82-.16v-.65a13.23,13.23,0,0,0,2.8-.67h.58V66.5q0,.13.3.29a3.23,3.23,0,0,0,.91.27v.68h-4.59Zm1.31-9.87a.89.89,0,0,1-.35-.76,1.33,1.33,0,0,1,.75-1.22,1.69,1.69,0,0,1,.77-.18,1.49,1.49,0,0,1,.9.26.88.88,0,0,1,.36.76,1.31,1.31,0,0,1-.43,1,1.56,1.56,0,0,1-1.1.39A1.45,1.45,0,0,1,226.16,57.2Z"/><path class="cls-1" d="M235.7,67a1.33,1.33,0,0,1-.6.65,3.38,3.38,0,0,1-1,.39l-3.21-7.59a.87.87,0,0,0-.3-.39,2,2,0,0,0-.63-.24v-.68h4.12v.68a3.56,3.56,0,0,0-.75.16q-.2.08-.2.24a.79.79,0,0,0,.06.23l2,4.66L237,60.43a.79.79,0,0,0,.06-.24.26.26,0,0,0-.17-.23,2.59,2.59,0,0,0-.63-.16v-.68h2.94v.68a2.86,2.86,0,0,0-.53.16.7.7,0,0,0-.25.17,1.16,1.16,0,0,0-.16.3Z"/><path class="cls-1" d="M245.28,67.63a2.47,2.47,0,0,1-.28-1.08,5,5,0,0,1-1.55,1.13A3.66,3.66,0,0,1,242,68a2.14,2.14,0,0,1-1-.25,2,2,0,0,1-.77-.73,2.17,2.17,0,0,1-.3-1.17,2.44,2.44,0,0,1,.2-1,2.91,2.91,0,0,1,.58-.83,3.6,3.6,0,0,1,.78-.6,6,6,0,0,1,1.28-.5,18,18,0,0,1,2.23-.46V61.37a1.6,1.6,0,0,0-.26-1,1.05,1.05,0,0,0-.9-.35,1.28,1.28,0,0,0-.55.13,1.13,1.13,0,0,0-.45.38,1,1,0,0,0-.17.57v.11q0,.11-.5.3a9.78,9.78,0,0,1-1.11.33,2.25,2.25,0,0,1-.75.11l-.19-.5a3.43,3.43,0,0,1,1-1.33,5.49,5.49,0,0,1,1.68-1,5.7,5.7,0,0,1,2-.35,2.45,2.45,0,0,1,1.81.61,2.19,2.19,0,0,1,.61,1.61v4.47q0,.72.36.72a1.05,1.05,0,0,0,.3-.05l.52-.2.2.7a11.06,11.06,0,0,1-1.57.93,3.22,3.22,0,0,1-1.15.39A.67.67,0,0,1,245.28,67.63ZM245,63.37a9.57,9.57,0,0,0-1.51.35,1.92,1.92,0,0,0-.73.43,2.07,2.07,0,0,0-.4.54,1.47,1.47,0,0,0-.13.64,1.06,1.06,0,0,0,.27.81.84.84,0,0,0,.58.25,2,2,0,0,0,.83-.21,4.93,4.93,0,0,0,1.09-.76Z"/></g></g></svg>