<svg xmlns="http://www.w3.org/2000/svg" viewBox="0 0 150 457.99"><defs><style>.cls-1{fill:#3196c3;}</style></defs><title>conceito-img</title><g id="Camada_2" data-name="Camada 2"><g id="Camada_1-2" data-name="Camada 1"><path class="cls-1" d="M109.81,88.81a2.18,2.18,0,1,0-4.37,0v3.5a2.18,2.18,0,1,0,4.37,0v-3.5Z"/><path class="cls-1" d="M104.86,92.31v-3.5a2.77,2.77,0,0,1,5.53,0v3.5a2.77,2.77,0,0,1-5.53,0Zm4.37-3.5a1.6,1.6,0,0,0-3.21,0v3.5a1.6,1.6,0,0,0,3.21,0Z"/><path class="cls-1" d="M118.38,5.15a10.72,10.72,0,0,1,2.06-.2c.28,0,.56,0,.83,0a2.18,2.18,0,0,0,.34-4.36c-.39,0-.78,0-1.17,0a15.11,15.11,0,0,0-2.9.28,2.21,2.21,0,0,0-1.71,2.64,2.21,2.21,0,0,0,2.55,1.64Z"/><path class="cls-1" d="M115.2,3A2.79,2.79,0,0,1,117.43.29a15.7,15.7,0,0,1,3-.29c.41,0,.81,0,1.21,0a2.77,2.77,0,0,1-.43,5.52c-.26,0-.52,0-.79,0a10.14,10.14,0,0,0-1.95.19,2.79,2.79,0,0,1-3.22-2.08A2.7,2.7,0,0,1,115.2,3ZM123,2.8a1.58,1.58,0,0,0-.38-1,1.6,1.6,0,0,0-1.1-.56c-.37,0-.75,0-1.12,0a14.54,14.54,0,0,0-2.79.27,1.62,1.62,0,0,0-1.25,1.94,1.62,1.62,0,0,0,1.87,1.21h0a11.31,11.31,0,0,1,2.17-.21c.29,0,.59,0,.88,0A1.6,1.6,0,0,0,123,2.93S123,2.84,123,2.8Z"/><path class="cls-1" d="M111.42,9.95a10.7,10.7,0,0,1,1.85-2.22,2.18,2.18,0,0,0-2.95-3.23,15.07,15.07,0,0,0-2.61,3.13,2.17,2.17,0,0,0-.33,1.16,2.18,2.18,0,0,0,4,1.16Z"/><path class="cls-1" d="M106.8,8.79a2.76,2.76,0,0,1,.42-1.47,15.66,15.66,0,0,1,2.71-3.25,2.77,2.77,0,0,1,3.73,4.08,10.11,10.11,0,0,0-1.75,2.1h0a2.77,2.77,0,0,1-5.11-1.47Zm6.6-2.67a1.6,1.6,0,0,0-2.68-1.18,14.49,14.49,0,0,0-2.51,3,1.6,1.6,0,0,0-.24.85,1.6,1.6,0,0,0,3,.85h0a11.28,11.28,0,0,1,2-2.34A1.6,1.6,0,0,0,113.4,6.11Z"/><path class="cls-1" d="M105.44,15.58v3.33a2.18,2.18,0,0,0,4.37,0v-3.5a2.18,2.18,0,0,0-4.37,0q0,.1,0,.2Z"/><path class="cls-1" d="M104.86,18.91V15.58q0-.11,0-.21a2.77,2.77,0,0,1,2.81-2.72,2.78,2.78,0,0,1,2.72,2.77v3.5a2.77,2.77,0,0,1-5.53,0Zm5-3.5h-.58a1.61,1.61,0,0,0-1.58-1.6A1.6,1.6,0,0,0,106,15.39c0,.06,0,.13,0,.19v3.33a1.6,1.6,0,0,0,3.21,0V15.44Z"/><path class="cls-1" d="M131,14.2a10.76,10.76,0,0,1,.09,1.37h0v1.83a2.18,2.18,0,1,0,4.37,0V15.58h0a15.13,15.13,0,0,0-.12-1.93,2.18,2.18,0,1,0-4.33.56Z"/><path class="cls-1" d="M130.38,13.92a2.77,2.77,0,0,1,5.51-.35,15.7,15.7,0,0,1,.13,2v1.84a2.77,2.77,0,1,1-5.53,0V15.58a10.24,10.24,0,0,0-.08-1.3h0A2.79,2.79,0,0,1,130.38,13.92Zm4.48,1.66a14.6,14.6,0,0,0-.12-1.86,1.6,1.6,0,0,0-1.8-1.38,1.61,1.61,0,0,0-1.38,1.8h0a11.35,11.35,0,0,1,.09,1.45v1.84a1.6,1.6,0,1,0,3.21,0Z"/><path class="cls-1" d="M126.15,3.9a2.21,2.21,0,0,0,.5,3,10.69,10.69,0,0,1,2.1,2,2.18,2.18,0,1,0,3.41-2.73,15.06,15.06,0,0,0-3-2.81,2.18,2.18,0,0,0-3,.5Z"/><path class="cls-1" d="M125.17,5.16a2.72,2.72,0,0,1,.51-1.6h0a2.77,2.77,0,0,1,3.86-.63,15.64,15.64,0,0,1,3.07,2.91,2.77,2.77,0,0,1-4.32,3.46,10.11,10.11,0,0,0-2-1.88A2.79,2.79,0,0,1,125.17,5.16ZM132,7.57a1.59,1.59,0,0,0-.35-1,14.48,14.48,0,0,0-2.84-2.7,1.6,1.6,0,0,0-2.24.36h0A1.63,1.63,0,0,0,127,6.48a11.27,11.27,0,0,1,2.21,2.1A1.6,1.6,0,0,0,132,7.75,1.66,1.66,0,0,0,132,7.57Z"/><path class="cls-1" d="M105.44,99.3v3.5a2.18,2.18,0,0,0,4.37,0V99.3a2.18,2.18,0,0,0-4.37,0Z"/><path class="cls-1" d="M104.86,102.79V99.3a2.77,2.77,0,0,1,5.53,0v3.5a2.77,2.77,0,0,1-5.53,0Zm4.37-3.5a1.6,1.6,0,0,0-3.21,0v3.5a1.6,1.6,0,0,0,3.21,0Z"/><path class="cls-1" d="M79.81,84v3.5a2.18,2.18,0,1,0,4.37,0V84a2.18,2.18,0,0,0-4.37,0Z"/><path class="cls-1" d="M79.22,87.48V84a2.77,2.77,0,0,1,5.53,0v3.5a2.77,2.77,0,0,1-5.53,0ZM83.59,84a1.6,1.6,0,0,0-3.21,0v3.5a1.6,1.6,0,0,0,3.21,0Z"/><path class="cls-1" d="M77.77,73.9a2.18,2.18,0,0,0,.35,1.18,10.57,10.57,0,0,1,1.22,2.62,2.18,2.18,0,1,0,4.18-1.28,14.93,14.93,0,0,0-1.72-3.7,2.18,2.18,0,0,0-4,1.19Z"/><path class="cls-1" d="M77.19,73.9a2.77,2.77,0,0,1,5.09-1.5,15.52,15.52,0,0,1,1.79,3.84,2.77,2.77,0,0,1-5.29,1.63,10,10,0,0,0-1.15-2.47A2.76,2.76,0,0,1,77.19,73.9ZM83,77.06a1.6,1.6,0,0,0-.07-.47A14.34,14.34,0,0,0,81.31,73a1.6,1.6,0,1,0-2.7,1.74,11.15,11.15,0,0,1,1.28,2.76A1.6,1.6,0,0,0,83,77.06Z"/><path class="cls-1" d="M107.62,84a2.18,2.18,0,0,0,2.18-2.18v-3.5a2.18,2.18,0,0,0-4.37,0v3.5A2.18,2.18,0,0,0,107.62,84Z"/><path class="cls-1" d="M104.86,81.82v-3.5a2.77,2.77,0,0,1,5.53,0v3.5a2.77,2.77,0,1,1-5.53,0Zm4.37-3.5a1.6,1.6,0,0,0-3.21,0v3.5a1.6,1.6,0,1,0,3.21,0Z"/><path class="cls-1" d="M131.07,34.89v3.5a2.18,2.18,0,1,0,4.37,0v-3.5a2.18,2.18,0,1,0-4.37,0Z"/><path class="cls-1" d="M130.49,38.39v-3.5a2.77,2.77,0,1,1,5.53,0v3.5a2.77,2.77,0,1,1-5.53,0Zm4.37-3.5a1.6,1.6,0,1,0-3.21,0v3.5a1.6,1.6,0,1,0,3.21,0Z"/><path class="cls-1" d="M131.07,24.41v3.5a2.18,2.18,0,0,0,4.37,0v-3.5a2.18,2.18,0,1,0-4.37,0Z"/><path class="cls-1" d="M130.49,27.9v-3.5a2.77,2.77,0,1,1,5.53,0v3.5a2.77,2.77,0,1,1-5.53,0Zm4.37-3.5a1.6,1.6,0,1,0-3.21,0v3.5a1.6,1.6,0,1,0,3.21,0Z"/><path class="cls-1" d="M109.81,25.9a2.18,2.18,0,0,0-4.37,0v3.5a2.18,2.18,0,0,0,4.37,0V25.9Z"/><path class="cls-1" d="M104.86,29.39V25.9a2.77,2.77,0,1,1,5.53,0v3.5a2.77,2.77,0,0,1-5.53,0Zm4.37-3.5a1.6,1.6,0,1,0-3.21,0v3.5a1.6,1.6,0,0,0,3.21,0Z"/><path class="cls-1" d="M76.76,70.27a2.18,2.18,0,0,0-1-2.92,14.91,14.91,0,0,0-3.88-1.28,2.18,2.18,0,0,0-.79,4.3,10.54,10.54,0,0,1,2.74.9,2.19,2.19,0,0,0,2.92-1Z"/><path class="cls-1" d="M68.73,68.22A2.77,2.77,0,0,1,72,65.5a15.51,15.51,0,0,1,4,1.33,2.77,2.77,0,0,1,1.27,3.7h0a2.77,2.77,0,0,1-3.7,1.27A10,10,0,0,0,71,70.94,2.77,2.77,0,0,1,68.73,68.22Zm7.68,1.09a1.61,1.61,0,0,0-.9-1.44,14.34,14.34,0,0,0-3.73-1.23,1.61,1.61,0,0,0-1.87,1.29A1.62,1.62,0,0,0,71.2,69.8a11.12,11.12,0,0,1,2.89,1,1.6,1.6,0,0,0,2.31-1.44Z"/><path class="cls-1" d="M107.62,73.52a2.18,2.18,0,0,0,2.18-2.18v-3.5a2.18,2.18,0,1,0-4.37,0v3.5a2.18,2.18,0,0,0,2.18,2.18Z"/><path class="cls-1" d="M104.86,71.34v-3.5a2.77,2.77,0,1,1,5.53,0v3.5a2.77,2.77,0,1,1-5.53,0Zm4.37-3.5a1.6,1.6,0,1,0-3.21,0v3.5a1.6,1.6,0,1,0,3.21,0Z"/><path class="cls-1" d="M84.18,105a2.18,2.18,0,0,0-4.37,0v3.5a2.18,2.18,0,0,0,4.37,0V105Z"/><path class="cls-1" d="M79.22,108.45V105a2.77,2.77,0,0,1,5.53,0v3.5a2.77,2.77,0,0,1-5.53,0Zm4.37-3.5a1.6,1.6,0,0,0-3.21,0v3.5a1.6,1.6,0,0,0,3.21,0Z"/><path class="cls-1" d="M106.64,125.84a2.18,2.18,0,0,0,2.67-1.55,15,15,0,0,0,.5-3.84h0v-.17a2.18,2.18,0,1,0-4.37,0v.17h0a10.66,10.66,0,0,1-.35,2.73,2.2,2.2,0,0,0,1.55,2.67Z"/><path class="cls-1" d="M104.43,123.72a2.72,2.72,0,0,1,.09-.7,10.08,10.08,0,0,0,.33-2.58v-.17a2.77,2.77,0,0,1,5.53,0v.17a15.59,15.59,0,0,1-.52,4,2.77,2.77,0,0,1-3.38,2h0a2.8,2.8,0,0,1-2.06-2.68Zm4.79-3.45a1.6,1.6,0,0,0-3.21,0v.17a11.25,11.25,0,0,1-.37,2.88,1.62,1.62,0,0,0,1.14,2h0a1.6,1.6,0,0,0,2-1.14,14.41,14.41,0,0,0,.48-3.7Z"/><path class="cls-1" d="M86.68,127.29a10.64,10.64,0,0,1-1.55-2.44,2.18,2.18,0,0,0-4,1.82,15,15,0,0,0,2.19,3.44,2.18,2.18,0,1,0,3.34-2.82Z"/><path class="cls-1" d="M80.38,125.78a2.8,2.8,0,0,1,.18-1,2.76,2.76,0,0,1,5.1-.19,10.08,10.08,0,0,0,1.46,2.31,2.77,2.77,0,1,1-4.22,3.57,15.57,15.57,0,0,1-2.27-3.58A2.72,2.72,0,0,1,80.38,125.78Zm6.23,2.92a1.6,1.6,0,0,0-.38-1h0a11.23,11.23,0,0,1-1.63-2.57,1.6,1.6,0,0,0-2.92,1.33,14.41,14.41,0,0,0,2.1,3.31,1.6,1.6,0,0,0,2.83-1Z"/><path class="cls-1" d="M79.81,98a2.18,2.18,0,0,0,4.37,0v-3.5a2.18,2.18,0,0,0-4.37,0V98Z"/><path class="cls-1" d="M79.22,98V94.47a2.77,2.77,0,1,1,5.53,0V98a2.77,2.77,0,1,1-5.53,0Zm4.37-3.49a1.6,1.6,0,1,0-3.21,0V98a1.6,1.6,0,1,0,3.21,0Z"/><path class="cls-1" d="M109.81,39.88v-3.5a2.18,2.18,0,0,0-4.37,0v3.5a2.18,2.18,0,1,0,4.37,0Z"/><path class="cls-1" d="M104.86,39.88v-3.5a2.77,2.77,0,1,1,5.53,0v3.5a2.77,2.77,0,1,1-5.53,0Zm4.37-3.5a1.6,1.6,0,1,0-3.21,0v3.5a1.6,1.6,0,1,0,3.21,0Z"/><path class="cls-1" d="M82,113.26a2.18,2.18,0,0,0-2.18,2.18v3.5a2.18,2.18,0,0,0,4.37,0v-3.5A2.18,2.18,0,0,0,82,113.26Z"/><path class="cls-1" d="M79.22,118.94v-3.5a2.77,2.77,0,0,1,5.53,0v3.5a2.77,2.77,0,0,1-5.53,0Zm4.37-3.5a1.6,1.6,0,0,0-3.21,0v3.5a1.6,1.6,0,0,0,3.21,0Z"/><path class="cls-1" d="M105.44,46.87v3.5a2.18,2.18,0,1,0,4.37,0v-3.5a2.18,2.18,0,1,0-4.37,0Z"/><path class="cls-1" d="M104.86,50.37v-3.5a2.77,2.77,0,1,1,5.53,0v3.5a2.77,2.77,0,1,1-5.53,0Zm4.37-3.5a1.6,1.6,0,1,0-3.21,0v3.5a1.6,1.6,0,1,0,3.21,0Z"/><path class="cls-1" d="M105.44,109.78v3.5a2.18,2.18,0,0,0,4.37,0v-3.5a2.18,2.18,0,1,0-4.37,0Z"/><path class="cls-1" d="M104.86,113.28v-3.49a2.77,2.77,0,1,1,5.53,0v3.49a2.77,2.77,0,1,1-5.53,0Zm4.37-3.49a1.6,1.6,0,1,0-3.21,0v3.49a1.6,1.6,0,1,0,3.21,0Z"/><path class="cls-1" d="M109.81,57.36a2.18,2.18,0,0,0-4.37,0v3.5a2.18,2.18,0,1,0,4.37,0v-3.5Z"/><path class="cls-1" d="M104.86,60.85v-3.5a2.77,2.77,0,0,1,5.53,0v3.5a2.77,2.77,0,0,1-5.53,0Zm4.37-3.5a1.6,1.6,0,0,0-3.21,0v3.5a1.6,1.6,0,0,0,3.21,0Z"/><path class="cls-1" d="M69.49,109.54a2.18,2.18,0,0,0-3.09,0,25.78,25.78,0,0,1-36.45,0,2.18,2.18,0,1,0-3.09,3.09,30.15,30.15,0,0,0,42.63,0,2.18,2.18,0,0,0,0-3.09Z"/><path class="cls-1" d="M25.64,111.09s0-.07,0-.11a2.76,2.76,0,0,1,4.71-1.85,25.2,25.2,0,0,0,35.63,0,2.77,2.77,0,0,1,3.91,0h0a2.77,2.77,0,0,1,0,3.91,30.73,30.73,0,0,1-43.46,0A2.76,2.76,0,0,1,25.64,111.09Zm43.43-1.14a1.61,1.61,0,0,0-2.27,0,26.36,26.36,0,0,1-37.28,0,1.63,1.63,0,0,0-2.18-.09,1.63,1.63,0,0,0-.09,2.35,29.57,29.57,0,0,0,41.81,0A1.61,1.61,0,0,0,69.07,109.95Z"/><path class="cls-1" d="M61.25,104.39a2.18,2.18,0,1,0-3.09-3.09,14.13,14.13,0,0,1-20,0,2.18,2.18,0,1,0-3.09,3.09,18.5,18.5,0,0,0,26.16,0Z"/><path class="cls-1" d="M33.88,102.85s0-.07,0-.11a2.76,2.76,0,0,1,4.71-1.85,13.55,13.55,0,0,0,19.16,0,2.77,2.77,0,1,1,3.91,3.91h0a19.08,19.08,0,0,1-27,0A2.76,2.76,0,0,1,33.88,102.85Zm27.43,0a1.6,1.6,0,0,0-2.74-1.13,14.71,14.71,0,0,1-20.8,0,1.63,1.63,0,0,0-2.18-.09A1.62,1.62,0,0,0,35.5,104a17.91,17.91,0,0,0,25.33,0h0A1.6,1.6,0,0,0,61.31,102.84Z"/><path class="cls-1" d="M54.66,94.71a2.18,2.18,0,0,0-3.09,0,4.81,4.81,0,0,1-6.8,0,2.18,2.18,0,0,0-3.09,3.09,9.17,9.17,0,0,0,13,0,2.18,2.18,0,0,0,0-3.09Z"/><path class="cls-1" d="M40.47,96.26s0-.07,0-.11a2.76,2.76,0,0,1,4.71-1.85,4.22,4.22,0,0,0,6,0,2.77,2.77,0,0,1,4.72,2h0a2.75,2.75,0,0,1-.81,2,9.76,9.76,0,0,1-13.8,0A2.76,2.76,0,0,1,40.47,96.26Zm14.25,0A1.6,1.6,0,0,0,52,95.12a5.39,5.39,0,0,1-7.62,0A1.63,1.63,0,0,0,42.19,95a1.63,1.63,0,0,0-.09,2.35,8.59,8.59,0,0,0,12.15,0,1.59,1.59,0,0,0,.47-1.13Z"/><path class="cls-1" d="M48.17,18.93A25.61,25.61,0,0,1,66.4,26.48a2.18,2.18,0,0,0,3.09-3.09,30.15,30.15,0,0,0-42.63,0,2.18,2.18,0,1,0,3.09,3.09,25.61,25.61,0,0,1,18.23-7.55Z"/><path class="cls-1" d="M25.64,24.93a2.77,2.77,0,0,1,.8-2A30.73,30.73,0,0,1,69.9,23,2.77,2.77,0,1,1,66,26.89a25.2,25.2,0,0,0-35.63,0A2.76,2.76,0,0,1,25.64,25S25.64,25,25.64,24.93Zm43.9,0a1.6,1.6,0,0,0-.47-1.13,29.57,29.57,0,0,0-41.81,0,1.63,1.63,0,0,0,.09,2.35,1.63,1.63,0,0,0,2.18-.09,26.36,26.36,0,0,1,37.28,0,1.6,1.6,0,0,0,2.74-1.13Z"/><path class="cls-1" d="M61.25,34.72a2.18,2.18,0,0,0,0-3.09,18.5,18.5,0,0,0-26.16,0,2.18,2.18,0,1,0,3.09,3.09,14.13,14.13,0,0,1,20,0,2.18,2.18,0,0,0,3.09,0Z"/><path class="cls-1" d="M33.88,33.17a2.77,2.77,0,0,1,.8-2,19.08,19.08,0,0,1,27,0,2.77,2.77,0,0,1,0,3.91h0a2.77,2.77,0,0,1-3.91,0,13.55,13.55,0,0,0-19.16,0,2.76,2.76,0,0,1-4.71-1.85S33.88,33.21,33.88,33.17Zm27.43,0A1.6,1.6,0,0,0,60.84,32,17.91,17.91,0,0,0,35.5,32a1.62,1.62,0,0,0,.09,2.35,1.63,1.63,0,0,0,2.17-.09,14.71,14.71,0,0,1,20.8,0,1.6,1.6,0,0,0,2.74-1.13Z"/><path class="cls-1" d="M54.66,41.31a2.18,2.18,0,0,0,0-3.09,9.17,9.17,0,0,0-13,0,2.18,2.18,0,0,0,3.09,3.09,4.81,4.81,0,0,1,6.8,0,2.18,2.18,0,0,0,3.09,0Z"/><path class="cls-1" d="M40.47,39.76a2.77,2.77,0,0,1,.8-2,9.76,9.76,0,0,1,13.8,0,2.77,2.77,0,1,1-3.91,3.91,4.22,4.22,0,0,0-6,0,2.76,2.76,0,0,1-4.71-1.85S40.47,39.8,40.47,39.76Zm14.24,0a1.6,1.6,0,0,0-.47-1.13,8.59,8.59,0,0,0-12.15,0,1.6,1.6,0,0,0,2.27,2.27,5.39,5.39,0,0,1,7.62,0,1.6,1.6,0,0,0,2.74-1.13Z"/><path class="cls-1" d="M44.56,86.8V70.19h3A6.86,6.86,0,0,0,54,74.85h4.81V75A11.81,11.81,0,0,1,47,86.8ZM47,49.22A11.81,11.81,0,0,1,58.83,61v.15H54a6.86,6.86,0,0,0-6.49,4.66h-3V49.22Zm11.8,21.26H54a2.48,2.48,0,1,1,0-5h4.81v5ZM63.2,75V70.19h1.31a2.18,2.18,0,0,0,0-4.37H63.2V61A16.18,16.18,0,0,0,47,44.85H16.75A16.18,16.18,0,0,0,.58,61V75A16.18,16.18,0,0,0,16.75,91.17H25.1a2.18,2.18,0,0,0,0-4.37H16.75A11.81,11.81,0,0,1,5,75V61a11.81,11.81,0,0,1,11.8-11.8H40.19V86.8h-5a2.18,2.18,0,1,0,0,4.37H47A16.18,16.18,0,0,0,63.2,75Z"/><path class="cls-1" d="M0,75V61A16.77,16.77,0,0,1,16.75,44.27H47A16.77,16.77,0,0,1,63.79,61v4.22h.73a2.77,2.77,0,0,1,0,5.53h-.73V75A16.77,16.77,0,0,1,47,91.75H35.19a2.77,2.77,0,1,1,0-5.53h4.42V49.8H16.75A11.23,11.23,0,0,0,5.53,61V75A11.23,11.23,0,0,0,16.75,86.21H25.1a2.77,2.77,0,0,1,0,5.53H16.75A16.77,16.77,0,0,1,0,75ZM62.62,61A15.6,15.6,0,0,0,47,45.44H16.75A15.6,15.6,0,0,0,1.16,61V75A15.6,15.6,0,0,0,16.75,90.58H25.1a1.6,1.6,0,0,0,0-3.21H16.75A12.39,12.39,0,0,1,4.37,75V61A12.39,12.39,0,0,1,16.75,48.64h24V87.38H35.19a1.6,1.6,0,1,0,0,3.21H47A15.6,15.6,0,0,0,62.62,75V69.61h1.89a1.6,1.6,0,0,0,0-3.21H62.62ZM44,87.38V69.61h4l.13.4A6.26,6.26,0,0,0,54,74.27h5.39V75A12.39,12.39,0,0,1,47,87.38Zm1.16-16.6V86.21H47A11.23,11.23,0,0,0,58.24,75.44H54a7.42,7.42,0,0,1-6.89-4.66ZM44,66.41V48.64H47A12.39,12.39,0,0,1,59.42,61v.73H54A6.26,6.26,0,0,0,48.09,66l-.13.4Zm1.16-16.6V65.24h2A7.42,7.42,0,0,1,54,60.58h4.22A11.23,11.23,0,0,0,47,49.8ZM51,68A3.06,3.06,0,0,1,54,65h5.39v6.11H54A3.06,3.06,0,0,1,51,68Zm7.28-1.89H54a1.89,1.89,0,1,0,0,3.79h4.22Z"/><path class="cls-1" d="M145,84.38,133.59,68,145,51.64V84.38ZM121.46,46.89H143L129.13,66.76a2.2,2.2,0,0,0,0,2.51L143,89.13H121.46V46.89Zm-4.37,44.42a2.18,2.18,0,0,0,2.18,2.18h28a2.21,2.21,0,0,0,2.18-2.18V44.71a2.21,2.21,0,0,0-2.18-2.18h-28a2.18,2.18,0,0,0-2.18,2.18v46.6Z"/><path class="cls-1" d="M116.51,91.31V44.71a2.77,2.77,0,0,1,2.77-2.77h28A2.8,2.8,0,0,1,150,44.71v46.6a2.8,2.8,0,0,1-2.77,2.77h-28A2.77,2.77,0,0,1,116.51,91.31Zm32.33-46.6a1.62,1.62,0,0,0-1.6-1.6h-28a1.6,1.6,0,0,0-1.6,1.6v46.6a1.6,1.6,0,0,0,1.6,1.6h28a1.62,1.62,0,0,0,1.6-1.6Zm-28,45V46.31h23.28L129.61,67.09a1.63,1.63,0,0,0,0,1.84l14.55,20.78ZM122,47.47V88.54h19.88L128.66,69.6a2.78,2.78,0,0,1,0-3.17l13.26-18.95ZM132.88,68l12.75-18.22V86.23Zm11.59-14.53L134.3,68l10.17,14.53Z"/><path class="cls-1" d="M76.79,434.46V381a1.79,1.79,0,1,0-3.58,0v53.47a1.79,1.79,0,1,0,3.58,0Zm0,0"/><path class="cls-1" d="M75,437.77a3.31,3.31,0,0,1-3.31-3.31V381a3.31,3.31,0,1,1,6.61,0v53.47A3.31,3.31,0,0,1,75,437.77Zm0-57.05a.28.28,0,0,0-.28.28v53.47a.28.28,0,1,0,.55,0V381A.28.28,0,0,0,75,380.71Z"/><path class="cls-1" d="M128.72,367.54c-3.79,0-8.5-1.63-13.5-3.36-6.33-2.19-13.49-4.67-20.93-4.67-8.6,0-13.85,3.77-16.74,6.93A21.87,21.87,0,0,0,75,369.85a21.72,21.72,0,0,0-2.55-3.42c-2.89-3.16-8.14-6.93-16.74-6.93-7.44,0-14.61,2.48-20.93,4.67-5,1.73-9.71,3.36-13.5,3.36a1.79,1.79,0,0,0-1.79,1.79v72.13a1.79,1.79,0,0,0,1.79,1.79c4.39,0,9.38-1.73,14.67-3.56,6.06-2.1,12.93-4.48,19.76-4.48,5.86,0,10.6,1.94,14.1,5.77a1.79,1.79,0,0,0,2.65-2.42c-2.89-3.16-8.14-6.93-16.74-6.93-7.44,0-14.6,2.48-20.93,4.67-4.23,1.47-8.27,2.86-11.71,3.26V371c3.94-.38,8.3-1.89,12.88-3.47,6.06-2.1,12.93-4.48,19.76-4.48,13.82,0,17.44,11,17.58,11.44a1.79,1.79,0,0,0,3.42,0c0-.11,3.67-11.44,17.58-11.44,6.83,0,13.7,2.38,19.76,4.48,4.58,1.59,8.94,3.1,12.88,3.47v68.53c-3.44-.39-7.47-1.79-11.71-3.25-6.33-2.19-13.49-4.67-20.93-4.67-8.61,0-13.85,3.77-16.74,6.93A1.79,1.79,0,1,0,80.2,441c3.5-3.83,8.24-5.77,14.1-5.77,6.83,0,13.7,2.38,19.76,4.48,5.29,1.83,10.28,3.56,14.67,3.56a1.79,1.79,0,0,0,1.79-1.79V369.33a1.79,1.79,0,0,0-1.79-1.79Zm0,0"/><path class="cls-1" d="M128.72,444.76c-4.64,0-9.75-1.77-15.17-3.64-5.94-2.06-12.68-4.39-19.26-4.39-5.42,0-9.78,1.77-13,5.27A3.28,3.28,0,0,1,79,443.07a3.31,3.31,0,0,1-2.59-5.53c3.09-3.39,8.7-7.43,17.86-7.43,7.69,0,15,2.53,21.42,4.76a76.63,76.63,0,0,0,9.7,2.92V372.37A69.74,69.74,0,0,1,113.56,369c-5.95-2.06-12.69-4.39-19.26-4.39-12.65,0-16,10-16.14,10.38a3.31,3.31,0,0,1-6.32,0c-.13-.41-3.42-10.37-16.13-10.37-6.58,0-13.31,2.33-19.26,4.39a70,70,0,0,1-11.87,3.38v65.42a76.38,76.38,0,0,0,9.7-2.92c6.45-2.23,13.74-4.76,21.43-4.76,9.16,0,14.77,4,17.86,7.43a3.3,3.3,0,0,1-.21,4.67,3.33,3.33,0,0,1-2.38.86A3.28,3.28,0,0,1,68.68,442c-3.2-3.5-7.56-5.27-13-5.27-6.58,0-13.31,2.33-19.26,4.39C31,443,25.93,444.76,21.28,444.76A3.31,3.31,0,0,1,18,441.46V369.33A3.31,3.31,0,0,1,21.28,366c3.53,0,8.13-1.59,13-3.28C40.72,360.51,48,358,55.71,358c9.16,0,14.77,4,17.86,7.43.5.55,1,1.13,1.43,1.73q.68-.9,1.43-1.73C79.53,362,85.14,358,94.29,358c7.69,0,15,2.53,21.43,4.76,4.87,1.69,9.47,3.28,13,3.28a3.31,3.31,0,0,1,3.31,3.31v72.13A3.31,3.31,0,0,1,128.72,444.76ZM94.29,433.7c7.09,0,14.08,2.42,20.25,4.56,5.16,1.79,10,3.48,14.17,3.48a.28.28,0,0,0,.28-.28V369.33a.28.28,0,0,0-.28-.28c-4,0-8.88-1.67-14-3.45-6.21-2.15-13.25-4.59-20.43-4.59-8.05,0-12.94,3.5-15.62,6.44a20.36,20.36,0,0,0-2.37,3.18L75,372.79l-1.3-2.15a20.19,20.19,0,0,0-2.37-3.18c-2.68-2.94-7.57-6.44-15.62-6.44-7.18,0-14.22,2.44-20.44,4.59-5.12,1.77-10,3.45-14,3.45a.28.28,0,0,0-.28.28v72.13a.28.28,0,0,0,.28.28c4.14,0,9-1.69,14.17-3.48,6.18-2.14,13.17-4.56,20.25-4.56,6.3,0,11.42,2.11,15.22,6.26a.27.27,0,0,0,.19.09.28.28,0,0,0,.29-.26.27.27,0,0,0-.07-.2c-2.68-2.94-7.57-6.44-15.62-6.44-7.18,0-14.21,2.44-20.42,4.59-4.35,1.51-8.44,2.92-12,3.33l-1.69.19v-71.6l1.37-.13c3.75-.36,8-1.83,12.5-3.39,6.2-2.15,13.19-4.57,20.28-4.57,14.92,0,18.87,12,19,12.49a.28.28,0,0,0,.53,0c0-.13,4.06-12.51,19-12.51,7.09,0,14.08,2.42,20.25,4.56,4.52,1.56,8.77,3,12.53,3.4l1.37.13v71.6l-1.69-.19c-3.6-.41-7.69-1.83-12-3.32-6.23-2.16-13.27-4.6-20.45-4.6-8.05,0-12.94,3.5-15.62,6.44a.28.28,0,0,0,0,.39.29.29,0,0,0,.2.07.27.27,0,0,0,.19-.09C82.87,435.8,88,433.7,94.29,433.7Z"/><path class="cls-1" d="M128.72,452.89c-3.79,0-8.5-1.63-13.5-3.36-6.33-2.19-13.49-4.67-20.93-4.67-8.08,0-13.2,3.33-16.19,6.35H71.89c-3-3-8.11-6.35-16.19-6.35-7.44,0-14.6,2.48-20.93,4.67-5,1.73-9.71,3.36-13.5,3.36a1.79,1.79,0,1,0,0,3.58c4.39,0,9.38-1.73,14.67-3.56,6.06-2.1,12.93-4.48,19.76-4.48,5.86,0,10.6,1.94,14.1,5.77a1.79,1.79,0,0,0,1.32.58h7.75a1.79,1.79,0,0,0,1.32-.58c3.5-3.83,8.24-5.77,14.1-5.77,6.83,0,13.7,2.38,19.76,4.48,5.29,1.83,10.28,3.56,14.67,3.56a1.79,1.79,0,0,0,0-3.58Zm0,0"/><path class="cls-1" d="M128.72,458c-4.65,0-9.76-1.77-15.17-3.64-6-2.06-12.69-4.39-19.26-4.39-5.41,0-9.78,1.77-13,5.27a3.32,3.32,0,0,1-2.44,1.08H71.13a3.32,3.32,0,0,1-2.44-1.08c-3.2-3.5-7.56-5.27-13-5.27-6.57,0-13.31,2.33-19.25,4.39C31,456.22,25.92,458,21.28,458a3.31,3.31,0,1,1,0-6.61c3.53,0,8.13-1.59,13-3.28,6.44-2.23,13.74-4.76,21.43-4.76,8.3,0,13.67,3.35,16.81,6.35h5c3.14-3,8.51-6.35,16.81-6.35,7.69,0,15,2.53,21.42,4.75,4.88,1.69,9.48,3.28,13,3.28a3.31,3.31,0,1,1,0,6.61ZM94.29,446.92c7.09,0,14.08,2.42,20.24,4.56,5.17,1.79,10,3.48,14.19,3.48a.28.28,0,1,0,0-.55c-4,0-8.88-1.67-14-3.45-6.22-2.15-13.26-4.59-20.43-4.59-7.67,0-12.45,3.21-15.11,5.9l-.45.45H71.26l-.45-.45c-2.66-2.69-7.44-5.9-15.11-5.9-7.18,0-14.22,2.44-20.43,4.59-5.13,1.77-10,3.45-14,3.45a.28.28,0,1,0,0,.55c4.14,0,9-1.69,14.17-3.48,6.18-2.14,13.17-4.56,20.25-4.56,6.3,0,11.42,2.11,15.22,6.26a.28.28,0,0,0,.2.09h7.75a.27.27,0,0,0,.2-.09C82.87,449,88,446.92,94.29,446.92Z"/><rect class="cls-1" x="64.5" y="150.36" width="21" height="173" rx="10.5" ry="10.5"/></g></g></svg>